<svg xmlns="http://www.w3.org/2000/svg" xmlns:xlink="http://www.w3.org/1999/xlink" viewBox="0 0 360.03 214.82"><defs><style>.cls-1{fill:#fff;}.cls-2{fill:url(#Sky);}.cls-3,.cls-4,.cls-5,.cls-6,.cls-7{fill-rule:evenodd;}.cls-3{fill:url(#linear-gradient);}.cls-4{fill:url(#linear-gradient-2);}.cls-5{fill:url(#linear-gradient-3);}.cls-6{fill-opacity:0.13;}.cls-7,.cls-8{fill:#444;}</style><linearGradient id="Sky" x1="36.02" y1="107.41" x2="324.02" y2="107.41" gradientUnits="userSpaceOnUse"><stop offset="0" stop-color="#cce0f4"/><stop offset="0.06" stop-color="#c3dcf2"/><stop offset="0.17" stop-color="#a9d2ee"/><stop offset="0.31" stop-color="#80c2e7"/><stop offset="0.46" stop-color="#47acde"/><stop offset="0.57" stop-color="#1e9cd7"/><stop offset="0.87" stop-color="#0075be"/><stop offset="0.99" stop-color="#005b97"/></linearGradient><linearGradient id="linear-gradient" x1="4.17" y1="1080.3" x2="4.17" y2="1080.2" gradientTransform="matrix(45.2, 0, 0, -212.17, -43.17, 229359.01)" gradientUnits="userSpaceOnUse"><stop offset="0" stop-color="#16b0ed" stop-opacity="0.8"/><stop offset="1" stop-color="#0f59b2" stop-opacity="0.84"/></linearGradient><linearGradient id="linear-gradient-2" x1="1.41" y1="1080.3" x2="1.41" y2="1080.2" gradientTransform="translate(223.1 229332.4) rotate(180) scale(46.13 212.15)" gradientUnits="userSpaceOnUse"><stop offset="0" stop-color="#7db643"/><stop offset="1" stop-color="#367533"/></linearGradient><linearGradient id="linear-gradient-3" x1="1.91" y1="1080.3" x2="1.91" y2="1080.2" gradientTransform="matrix(150.45, 0, 0, -212.19, -136.2, 229380.34)" gradientUnits="userSpaceOnUse"><stop offset="0" stop-color="#88c649" stop-opacity="0.8"/><stop offset="1" stop-color="#439240" stop-opacity="0.84"/></linearGradient></defs><title>Aerojump</title><g id="Layer_1" data-name="Layer 1"><path class="cls-1" d="M282.87,97.12l-.74,0A72,72,0,0,0,157.67,58.9a61.76,61.76,0,0,0-77,38.38c-1.15-.1-2.3-.16-3.47-.16a41.15,41.15,0,0,0,0,82.29H282.87a41.15,41.15,0,1,0,0-82.29Z"/><path class="cls-2" d="M210.87,42.41A65,65,0,0,1,275.2,98.13l.88,6.12,6.18-.11h.61a34.15,34.15,0,1,1,0,68.29H77.16a34.15,34.15,0,0,1,0-68.29c.88,0,1.82,0,2.89.14l5.39.45,1.8-5.11a54.75,54.75,0,0,1,68.3-34l4.27,1.37,3-3.32a65.14,65.14,0,0,1,48-21.21m0-7a71.8,71.8,0,0,0-53.2,23.49,61.76,61.76,0,0,0-77,38.38c-1.15-.1-2.3-.16-3.47-.16a41.15,41.15,0,0,0,0,82.29H282.87a41.15,41.15,0,1,0,0-82.29l-.74,0a72,72,0,0,0-71.26-61.73Z"/></g><g id="Layer_2" data-name="Layer 2"><g id="Page-1"><g id="mark"><path id="Left---green" class="cls-3" d="M143,154.27l4.52-4.56v21.23L143,166.43Z"/><path id="Right---blue" class="cls-4" d="M160.51,154.32l-4.58-4.61.09,21.23,4.53-4.51Z"/><path id="Cross---blue" class="cls-5" d="M147.56,149.71l11.76,17.95L156,171,144.26,153Z"/><path id="Shadow" class="cls-6" d="M147.56,158v.71l-3.63-5.36.34-.34Z"/></g><g id="wordmark"><g id="Group"><path id="Shape" class="cls-7" d="M165.65,165v-9h.47a.25.25,0,0,1,.27.23l.08,1.35a5,5,0,0,1,1.42-1.25,3.55,3.55,0,0,1,1.8-.47,3.51,3.51,0,0,1,1.3.23,2.33,2.33,0,0,1,.92.68,3,3,0,0,1,.56,1.06,4.72,4.72,0,0,1,.19,1.41V165h-.85v-5.73a3.05,3.05,0,0,0-.58-2,2.09,2.09,0,0,0-1.75-.72,3.11,3.11,0,0,0-1.63.46,4.81,4.81,0,0,0-1.35,1.25V165Z"/><path class="cls-7" d="M178,155.93a3.8,3.8,0,0,1,1.41.26,3.22,3.22,0,0,1,1.13.76,3.57,3.57,0,0,1,.74,1.23,4.76,4.76,0,0,1,.27,1.67.45.45,0,0,1-.06.27.22.22,0,0,1-.19.07h-6.5v.17a6.28,6.28,0,0,0,.23,1.77,3.61,3.61,0,0,0,.67,1.28,2.64,2.64,0,0,0,1.06.78,3.35,3.35,0,0,0,1.37.26,4.13,4.13,0,0,0,1.18-.15,4.19,4.19,0,0,0,1.37-.66.64.64,0,0,1,.29-.15.23.23,0,0,1,.19.09l.23.29a2.35,2.35,0,0,1-.57.5,4,4,0,0,1-.8.4,6.45,6.45,0,0,1-.94.27,5.76,5.76,0,0,1-1,.1,4.39,4.39,0,0,1-1.69-.32,3.78,3.78,0,0,1-1.3-.93,4.21,4.21,0,0,1-.84-1.5,6.33,6.33,0,0,1-.3-2,5.3,5.3,0,0,1,.28-1.77,4,4,0,0,1,.79-1.41,3.62,3.62,0,0,1,1.28-.92,4.21,4.21,0,0,1,1.71-.33Zm.06.6a3.54,3.54,0,0,0-1.26.21,2.71,2.71,0,0,0-1,.61,3.18,3.18,0,0,0-.66.94,4.35,4.35,0,0,0-.33,1.24h6a3.55,3.55,0,0,0-.2-1.26,2.67,2.67,0,0,0-.56-.94,2.4,2.4,0,0,0-.88-.59,3,3,0,0,0-1.14-.21Z"/><path class="cls-7" d="M186.52,155.93a4.45,4.45,0,0,1,1.76.33,3.6,3.6,0,0,1,1.3.93,3.87,3.87,0,0,1,.81,1.45,6.59,6.59,0,0,1,0,3.8,4,4,0,0,1-.81,1.45,3.46,3.46,0,0,1-1.3.92,4.83,4.83,0,0,1-3.51,0,3.5,3.5,0,0,1-1.31-.92,4,4,0,0,1-.81-1.45,6.59,6.59,0,0,1,0-3.8,3.87,3.87,0,0,1,.81-1.45,3.64,3.64,0,0,1,1.31-.93,4.44,4.44,0,0,1,1.75-.33Zm-.05,8.61a3.33,3.33,0,0,0,1.4-.28,2.59,2.59,0,0,0,1-.79,3.46,3.46,0,0,0,.6-1.25,6.74,6.74,0,0,0,0-3.26,3.46,3.46,0,0,0-.6-1.25,2.61,2.61,0,0,0-1-.8,3.18,3.18,0,0,0-1.4-.28,3.24,3.24,0,0,0-1.4.28,2.69,2.69,0,0,0-1,.8,3.63,3.63,0,0,0-.6,1.25,6.74,6.74,0,0,0,0,3.26,3.63,3.63,0,0,0,.6,1.25,2.66,2.66,0,0,0,1,.79,3.39,3.39,0,0,0,1.4.28Z"/><path class="cls-7" d="M196,164.84h-2l-3.66-9.21h1.84a.69.69,0,0,1,.41.12.53.53,0,0,1,.22.29l1.78,4.92a7.85,7.85,0,0,1,.25.84c.07.28.13.55.19.83.05-.28.11-.55.18-.83a8.12,8.12,0,0,1,.27-.84l1.81-4.92a.6.6,0,0,1,.23-.29.62.62,0,0,1,.38-.12h1.75L196,164.84Z"/><rect id="Rectangle" class="cls-8" x="200.18" y="155.73" width="2.3" height="9.21"/><path class="cls-7" d="M204,164.94v-9.27h1.37a.55.55,0,0,1,.57.41l.14.69a4,4,0,0,1,.51-.5,3.6,3.6,0,0,1,.57-.39,3.39,3.39,0,0,1,.65-.26,3,3,0,0,1,.76-.09A2.17,2.17,0,0,1,210,156a2.91,2.91,0,0,1,.85,1.26,2.63,2.63,0,0,1,.54-.79,2.84,2.84,0,0,1,.71-.54,3.43,3.43,0,0,1,.83-.3,3.71,3.71,0,0,1,.88-.1,3.84,3.84,0,0,1,1.36.23,2.64,2.64,0,0,1,1,.69,3,3,0,0,1,.62,1.1A4.83,4.83,0,0,1,217,159v5.9h-2.23V159a2,2,0,0,0-.38-1.33,1.43,1.43,0,0,0-1.14-.45,1.69,1.69,0,0,0-.64.12,1.53,1.53,0,0,0-.86.89,2.07,2.07,0,0,0-.13.77v5.9h-2.24V159a2,2,0,0,0-.37-1.35,1.38,1.38,0,0,0-1.11-.43,1.78,1.78,0,0,0-.9.24,3,3,0,0,0-.78.66v6.78Z"/><rect class="cls-8" x="200.18" y="152.63" width="2.3" height="1.9"/></g></g></g></g><g id="Layer_3" data-name="Layer 3"><path d="M99,97.63h1.53l9,22.85h-1.51l-2.88-7.33H94.26l-2.91,7.33H89.84Zm5.73,14.3L99.86,99H99.8l-5.09,12.92Z"/><path d="M112.66,97.63H128v1.22h-14V108h13.12v1.21H114.07v10.05h14.11v1.22H112.66Z"/><path d="M132,97.63h9.54a12.55,12.55,0,0,1,2.81.3,6.8,6.8,0,0,1,2.31,1,4.84,4.84,0,0,1,1.55,1.8,6.27,6.27,0,0,1,.56,2.79,5.93,5.93,0,0,1-1.3,3.89,5.63,5.63,0,0,1-3.6,2v.07a5.41,5.41,0,0,1,2.48.83,4.07,4.07,0,0,1,1.36,1.57,6.41,6.41,0,0,1,.58,2,20.88,20.88,0,0,1,.13,2.24v1.31a11.2,11.2,0,0,0,.06,1.2,5.47,5.47,0,0,0,.21,1,2.23,2.23,0,0,0,.4.8h-1.57a4.24,4.24,0,0,1-.5-1.87c0-.72,0-1.46,0-2.23s0-1.53-.1-2.29a4.87,4.87,0,0,0-.61-2,3.74,3.74,0,0,0-1.61-1.44,7.29,7.29,0,0,0-3.12-.54h-8.13v10.4H132Zm9.54,11.23a8.62,8.62,0,0,0,2.32-.3,5,5,0,0,0,1.84-1,4.46,4.46,0,0,0,1.21-1.63,5.69,5.69,0,0,0,.45-2.37,4.66,4.66,0,0,0-.48-2.19,4.31,4.31,0,0,0-1.28-1.49,5.26,5.26,0,0,0-1.86-.83,9.33,9.33,0,0,0-2.2-.25h-8.13v10Z"/><path d="M174.32,109.05a14.63,14.63,0,0,1-.73,4.69,11.25,11.25,0,0,1-2.13,3.81,9.72,9.72,0,0,1-3.41,2.54,10.79,10.79,0,0,1-4.57.93,11,11,0,0,1-4.6-.93,9.75,9.75,0,0,1-3.42-2.54,11.25,11.25,0,0,1-2.13-3.81,15.4,15.4,0,0,1,0-9.37,11.25,11.25,0,0,1,2.13-3.81A9.9,9.9,0,0,1,158.88,98a11.11,11.11,0,0,1,4.6-.92,10.94,10.94,0,0,1,4.57.92,9.86,9.86,0,0,1,3.41,2.55,11.25,11.25,0,0,1,2.13,3.81A14.61,14.61,0,0,1,174.32,109.05Zm-20.32,0a13.42,13.42,0,0,0,.64,4.16,10.22,10.22,0,0,0,1.86,3.41,9.33,9.33,0,0,0,11,2.32,9,9,0,0,0,3-2.32,10.22,10.22,0,0,0,1.86-3.41,13.84,13.84,0,0,0,0-8.32,10.27,10.27,0,0,0-1.86-3.4,9,9,0,0,0-3-2.32,9.12,9.12,0,0,0-11,2.32,10.27,10.27,0,0,0-1.86,3.4A13.52,13.52,0,0,0,154,109.05Z"/><path d="M190.53,117.05a5.14,5.14,0,0,1-1.12,2,5.39,5.39,0,0,1-2.08,1.41,8.55,8.55,0,0,1-3.21.53,6.77,6.77,0,0,1-4.93-1.68,6.6,6.6,0,0,1-1.73-4.94V113h3v1a9.34,9.34,0,0,0,.16,1.82,3.87,3.87,0,0,0,.56,1.44,2.68,2.68,0,0,0,1.12.95,4.42,4.42,0,0,0,1.84.33,3.24,3.24,0,0,0,2.86-1.12,5.09,5.09,0,0,0,.79-3V97.63h3v17.15A7.62,7.62,0,0,1,190.53,117.05Z"/><path d="M213.2,118.8q-2.32,2.19-6.65,2.19a10.34,10.34,0,0,1-6.9-2.1c-1.65-1.39-2.48-3.62-2.48-6.67V97.63h3v14.59a6.24,6.24,0,0,0,1.63,4.66,6.52,6.52,0,0,0,4.71,1.58,5.87,5.87,0,0,0,4.43-1.58,6.5,6.5,0,0,0,1.52-4.66V97.63h3v14.59Q215.54,116.62,213.2,118.8Z"/><path d="M226.07,97.63l7.2,19.2,7.23-19.2h4.16v22.85h-2.88v-19h-.06l-7.14,19H232l-7.14-19h-.06v19h-2.88V97.63Z"/><path d="M261.17,97.63a7.05,7.05,0,0,1,5.23,1.78,7.86,7.86,0,0,1,0,10,6.89,6.89,0,0,1-5.23,1.76h-7v9.35h-3V97.63Zm-1,10.94a5.42,5.42,0,0,0,3.79-1,4,4,0,0,0,1.2-3.14,4,4,0,0,0-1.2-3.12,5.62,5.62,0,0,0-3.79-1.07h-6v8.38Z"/><path d="M174.1,142v6.48h-.88V142H172v-.74h1.23v-.66a4.5,4.5,0,0,1,.07-.85,1.64,1.64,0,0,1,.26-.68,1.29,1.29,0,0,1,.54-.43,2.21,2.21,0,0,1,.88-.15h.36l.38,0v.76l-.34-.05-.3,0a1.18,1.18,0,0,0-.56.11.76.76,0,0,0-.29.3,1.19,1.19,0,0,0-.11.44c0,.17,0,.35,0,.55v.63h1.43V142Z"/><path d="M180.88,141.34a3.12,3.12,0,0,1,1.07.82,3.64,3.64,0,0,1,.66,1.21,4.88,4.88,0,0,1,0,3,3.64,3.64,0,0,1-.66,1.21,3.12,3.12,0,0,1-1.07.82,3.7,3.7,0,0,1-2.92,0,3,3,0,0,1-1.07-.82,3.64,3.64,0,0,1-.66-1.21,4.88,4.88,0,0,1,0-3,3.64,3.64,0,0,1,.66-1.21,3,3,0,0,1,1.07-.82,3.59,3.59,0,0,1,2.92,0Zm-2.57.7a2.41,2.41,0,0,0-.79.7,3,3,0,0,0-.47,1,4.07,4.07,0,0,0,0,2.26,2.88,2.88,0,0,0,.47,1,2.41,2.41,0,0,0,.79.7,2.42,2.42,0,0,0,2.22,0,2.41,2.41,0,0,0,.79-.7,2.88,2.88,0,0,0,.47-1,4.07,4.07,0,0,0,0-2.26,3,3,0,0,0-.47-1,2.41,2.41,0,0,0-.79-.7,2.42,2.42,0,0,0-2.22,0Z"/><path d="M185,141.24v1.69h0a2.78,2.78,0,0,1,1-1.36,2.75,2.75,0,0,1,1.68-.43V142a2.75,2.75,0,0,0-1.09.16,2.57,2.57,0,0,0-.85.54,2.4,2.4,0,0,0-.55.84,2.77,2.77,0,0,0-.2,1.05v3.85h-.88v-7.22Z"/></g></svg>